<?xml version="1.0" encoding="UTF-8"?>
<svg id="Layer_2" data-name="Layer 2" xmlns="http://www.w3.org/2000/svg" viewBox="0 0 347.39 268.95">
  <defs>
    <style>
      .cls-1 {
        fill: #231f20;
        stroke-width: 0px;
      }
    </style>
  </defs>
  <g id="Layer_1-2" data-name="Layer 1">
    <g>
      <path class="cls-1" d="M134.47,134.47v109.75c0,13.66-11.07,24.73-24.73,24.73H0l134.47-134.47Z"/>
      <path class="cls-1" d="M224.12,111.3h0c0,29.19,11.59,57.18,32.23,77.82l79.83,79.83h-158.45c-11.51,0-20.84-9.33-20.84-20.84V55.27c0-30.52,24.75-55.27,55.27-55.27h119.3c8.8,0,15.93,7.13,15.93,15.93v27.09c0,7.18-5.82,13-13,13h-54.99c-30.52,0-55.27,24.75-55.27,55.27Z"/>
      <path class="cls-1" d="M275.24,140.76l72.15,72.15v-88.38c0-6.89-5.58-12.47-12.47-12.47h-47.79c-14.98,0-22.48,18.11-11.89,28.7Z"/>
    </g>
  </g>
</svg>